<svg xmlns="http://www.w3.org/2000/svg" xmlns:xlink="http://www.w3.org/1999/xlink" viewBox="0 0 500 500" width="500" height="500" preserveAspectRatio="xMidYMid meet" style="width: 100%; height: 100%; transform: translate3d(0px, 0px, 0px); content-visibility: visible;"><defs><clipPath id="__lottie_element_1634"><rect width="500" height="500" x="0" y="0"/></clipPath><clipPath id="__lottie_element_1636"><path d="M0,0 L500,0 L500,500 L0,500z"/></clipPath><g id="__lottie_element_1688"><g class="primary design" transform="matrix(1,0,0,1,0.000011444091796875,0)" opacity="1" style="display: none;"><g opacity="1" transform="matrix(1,0,0,1,218.7480010986328,218.7530059814453)"><path fill="rgb(255,0,0)" fill-opacity="1" d=" M59.5620002746582,-119.79199981689453 C59.5620002746582,-119.79199981689453 -59.5620002746582,-119.79199981689453 -59.5620002746582,-119.79199981689453 C-115.83799743652344,-119.79199981689453 -161.45899963378906,-74.1719970703125 -161.45899963378906,-17.895999908447266 C-161.45899963378906,-17.895999908447266 -161.45899963378906,119.79199981689453 -161.45899963378906,119.79199981689453 C-161.45899963378906,119.79199981689453 59.5620002746582,119.79199981689453 59.5620002746582,119.79199981689453 C115.83899688720703,119.79199981689453 161.45899963378906,74.1709976196289 161.45899963378906,17.895000457763672 C161.45899963378906,17.895000457763672 161.45899963378906,-17.895999908447266 161.45899963378906,-17.895999908447266 C161.45899963378906,-74.1719970703125 115.83899688720703,-119.79199981689453 59.5620002746582,-119.79199981689453z"/></g></g></g><filter id="__lottie_element_1694" filterUnits="objectBoundingBox" x="0%" y="0%" width="100%" height="100%"><feComponentTransfer in="SourceGraphic"><feFuncA type="table" tableValues="1.0 0.0"/></feComponentTransfer></filter><mask id="__lottie_element_1688_2" mask-type="alpha"><g filter="url(#__lottie_element_1694)"><rect width="500" height="500" x="0" y="0" fill="#ffffff" opacity="0"/><use xmlns:ns1="http://www.w3.org/1999/xlink" ns1:href="#__lottie_element_1688"/></g></mask></defs><g clip-path="url(#__lottie_element_1634)"><g clip-path="url(#__lottie_element_1636)" transform="matrix(1,0,0,1,0,0)" opacity="1" style="display: block;"><g mask="url(#__lottie_element_1688_2)" style="display: none;"><g class="primary design" transform="matrix(1,0,0,1,312.49798583984375,333.3370056152344)" opacity="1"><g opacity="1" transform="matrix(1,0,0,1,0,0)"><path class="primary" fill="rgb(18,19,49)" fill-opacity="1" d="M0 0"/></g><g opacity="1" transform="matrix(1,0,0,1,0,0)"><path stroke-linecap="round" stroke-linejoin="round" fill-opacity="0" class="primary" stroke="rgb(18,19,49)" stroke-opacity="1" stroke-width="31.3" d=" M51.53799819946289,-88.54199981689453 C51.53799819946289,-88.54199981689453 -51.53799819946289,-88.54199981689453 -51.53799819946289,-88.54199981689453 C-94.98600006103516,-88.54199981689453 -130.20899963378906,-53.31999969482422 -130.20899963378906,-9.871999740600586 C-130.20899963378906,-9.871999740600586 -130.20899963378906,9.871000289916992 -130.20899963378906,9.871000289916992 C-130.20899963378906,53.319000244140625 -94.98600006103516,88.54199981689453 -51.53799819946289,88.54199981689453 C-51.53799819946289,88.54199981689453 130.20899963378906,88.54199981689453 130.20899963378906,88.54199981689453 C130.20899963378906,88.54199981689453 130.20899963378906,-9.871999740600586 130.20899963378906,-9.871999740600586 C130.20899963378906,-53.31999969482422 94.98799896240234,-88.54199981689453 51.53799819946289,-88.54199981689453z"/></g></g></g><g class="primary design" transform="matrix(1,0,0,1,0.000011444091796875,0)" opacity="1" style="display: none;"><g opacity="1" transform="matrix(1,0,0,1,0,0)"><path class="primary" fill="rgb(18,19,49)" fill-opacity="1" d="M0 0"/></g><g opacity="1" transform="matrix(1,0,0,1,218.7480010986328,218.7530059814453)"><path stroke-linecap="round" stroke-linejoin="round" fill-opacity="0" class="primary" stroke="rgb(18,19,49)" stroke-opacity="1" stroke-width="31.3" d=" M59.5620002746582,-119.79199981689453 C59.5620002746582,-119.79199981689453 -59.5620002746582,-119.79199981689453 -59.5620002746582,-119.79199981689453 C-115.83799743652344,-119.79199981689453 -161.45899963378906,-74.1719970703125 -161.45899963378906,-17.895999908447266 C-161.45899963378906,-17.895999908447266 -161.45899963378906,119.79199981689453 -161.45899963378906,119.79199981689453 C-161.45899963378906,119.79199981689453 59.5620002746582,119.79199981689453 59.5620002746582,119.79199981689453 C115.83899688720703,119.79199981689453 161.45899963378906,74.1709976196289 161.45899963378906,17.895000457763672 C161.45899963378906,17.895000457763672 161.45899963378906,-17.895999908447266 161.45899963378906,-17.895999908447266 C161.45899963378906,-74.1719970703125 115.83899688720703,-119.79199981689453 59.5620002746582,-119.79199981689453z"/></g><g opacity="1" transform="matrix(1,0,0,1,0,0)"><g opacity="1" transform="matrix(1,0,0,1,135.41400146484375,218.7530059814453)"><path stroke-linecap="round" stroke-linejoin="miter" fill-opacity="0" stroke-miterlimit="10" class="primary" stroke="rgb(18,19,49)" stroke-opacity="1" stroke-width="41" d=" M0,0 C0,0 0,0 0,0"/></g><g opacity="1" transform="matrix(1,0,0,1,218.7480010986328,218.7530059814453)"><path stroke-linecap="round" stroke-linejoin="miter" fill-opacity="0" stroke-miterlimit="10" class="primary" stroke="rgb(18,19,49)" stroke-opacity="1" stroke-width="41" d=" M0,0 C0,0 0,0 0,0"/></g><g opacity="1" transform="matrix(1,0,0,1,302.08099365234375,218.7530059814453)"><path stroke-linecap="round" stroke-linejoin="miter" fill-opacity="0" stroke-miterlimit="10" class="primary" stroke="rgb(18,19,49)" stroke-opacity="1" stroke-width="41" d=" M0,0 C0,0 0,0 0,0"/></g></g></g><g class="primary design" transform="matrix(1,0,0,1,250,250)" opacity="1" style="display: block;"><g opacity="1" transform="matrix(1,0,0,1,0,0)"><path stroke-linecap="butt" stroke-linejoin="miter" fill-opacity="0" stroke-miterlimit="4" class="primary" stroke="rgb(255,255,255)" stroke-opacity="1" stroke-width="2" d="M0 0"/></g><g opacity="1" transform="matrix(1,0,0,1,0,0)"><path class="primary" fill="rgb(255,255,255)" fill-opacity="1" d=" M145.85699462890625,-15.32800006866455 C145.85699462890625,-15.32800006866455 145.85699462890625,-49.143001556396484 145.85699462890625,-49.143001556396484 C145.85699462890625,-113.95800018310547 93.125,-166.68899536132812 28.309999465942383,-166.68899536132812 C28.309999465942383,-166.68899536132812 -90.81400299072266,-166.68899536132812 -90.81400299072266,-166.68899536132812 C-155.62899780273438,-166.68899536132812 -208.36099243164062,-113.95800018310547 -208.36099243164062,-49.143001556396484 C-208.36099243164062,-49.143001556396484 -208.36099243164062,88.54499816894531 -208.36099243164062,88.54499816894531 C-208.36099243164062,97.18800354003906 -201.35499572753906,104.19499969482422 -192.71099853515625,104.19499969482422 C-192.71099853515625,104.19499969482422 -82.71700286865234,104.19499969482422 -82.71700286865234,104.19499969482422 C-77.25800323486328,151.0469970703125 -37.33300018310547,187.53199768066406 10.960000038146973,187.53199768066406 C10.960000038146973,187.53199768066406 192.7100067138672,187.53199768066406 192.7100067138672,187.53199768066406 C201.35400390625,187.53199768066406 208.36000061035156,180.52499389648438 208.36000061035156,171.8820037841797 C208.36000061035156,171.8820037841797 208.36000061035156,73.46199798583984 208.36000061035156,73.46199798583984 C208.36000061035156,33.33300018310547 182.7530059814453,-2.0880000591278076 145.85699462890625,-15.32800006866455z M-177.06100463867188,-49.143001556396484 C-177.06100463867188,-96.6989974975586 -138.37100219726562,-135.38900756835938 -90.81400299072266,-135.38900756835938 C-90.81400299072266,-135.38900756835938 28.309999465942383,-135.38900756835938 28.309999465942383,-135.38900756835938 C75.86699676513672,-135.38900756835938 114.55699920654297,-96.6989974975586 114.55699920654297,-49.143001556396484 C114.55699920654297,-49.143001556396484 114.55699920654297,-13.35200023651123 114.55699920654297,-13.35200023651123 C114.55699920654297,34.20500183105469 75.86699676513672,72.8949966430664 28.309999465942383,72.8949966430664 C28.309999465942383,72.8949966430664 -67.6520004272461,72.8949966430664 -67.6520004272461,72.8949966430664 C-67.6719970703125,72.8949966430664 -67.69000244140625,72.89199829101562 -67.70999908447266,72.89199829101562 C-67.7300033569336,72.89199829101562 -67.74800109863281,72.8949966430664 -67.76799774169922,72.8949966430664 C-67.76799774169922,72.8949966430664 -177.06100463867188,72.8949966430664 -177.06100463867188,72.8949966430664 C-177.06100463867188,72.8949966430664 -177.06100463867188,-49.143001556396484 -177.06100463867188,-49.143001556396484z M177.05999755859375,156.23199462890625 C177.05999755859375,156.23199462890625 10.960000038146973,156.23199462890625 10.960000038146973,156.23199462890625 C-20.04199981689453,156.23199462890625 -45.86800003051758,133.7239990234375 -51.082000732421875,104.19499969482422 C-51.082000732421875,104.19499969482422 28.309999465942383,104.19499969482422 28.309999465942383,104.19499969482422 C82.66000366210938,104.19499969482422 128.5050048828125,67.11499786376953 141.89599609375,16.926000595092773 C162.9510040283203,27.339000701904297 177.05999755859375,49.104000091552734 177.05999755859375,73.46199798583984 C177.05999755859375,73.46199798583984 177.05999755859375,156.23199462890625 177.05999755859375,156.23199462890625z"/></g></g><g class="primary design" transform="matrix(1,0,0,1,135.41000366210938,218.7530059814453)" opacity="1" style="display: block;"><g opacity="1" transform="matrix(1,0,0,1,0,0)"><path stroke-linecap="butt" stroke-linejoin="miter" fill-opacity="0" stroke-miterlimit="4" class="primary" stroke="rgb(255,255,255)" stroke-opacity="1" stroke-width="2" d="M0 0"/></g><g opacity="1" transform="matrix(1,0,0,1,0,0)"><path class="primary" fill="rgb(255,255,255)" fill-opacity="1" d=" M20.100000381469727,-4.000999927520752 C19.969999313354492,-4.660999774932861 19.80900001525879,-5.310999870300293 19.608999252319336,-5.951000213623047 C19.420000076293945,-6.591000080108643 19.190000534057617,-7.2210001945495605 18.93000030517578,-7.841000080108643 C18.68000030517578,-8.461000442504883 18.389999389648438,-9.071000099182129 18.079999923706055,-9.651000022888184 C17.760000228881836,-10.241000175476074 17.420000076293945,-10.821000099182129 17.049999237060547,-11.380999565124512 C16.68000030517578,-11.940999984741211 16.280000686645508,-12.480999946594238 15.850000381469727,-13.00100040435791 C15.430000305175781,-13.520999908447266 14.970000267028809,-14.020999908447266 14.5,-14.50100040435791 C14.029000282287598,-14.970999717712402 13.520000457763672,-15.420999526977539 13,-15.85099983215332 C12.48900032043457,-16.270999908447266 11.9399995803833,-16.67099952697754 11.380000114440918,-17.041000366210938 C10.829999923706055,-17.410999298095703 10.25,-17.76099967956543 9.659000396728516,-18.070999145507812 C9.069000244140625,-18.391000747680664 8.460000038146973,-18.67099952697754 7.840000152587891,-18.930999755859375 C7.230000019073486,-19.180999755859375 6.590000152587891,-19.410999298095703 5.960000038146973,-19.611000061035156 C5.318999767303467,-19.801000595092773 4.658999919891357,-19.97100067138672 4.010000228881836,-20.10099983215332 C3.3499999046325684,-20.231000900268555 2.680000066757202,-20.33099937438965 2.0199999809265137,-20.400999069213867 C0.6800000071525574,-20.5310001373291 -0.6809999942779541,-20.5310001373291 -2.010999917984009,-20.400999069213867 C-2.680999994277954,-20.33099937438965 -3.3510000705718994,-20.231000900268555 -4,-20.10099983215332 C-4.650000095367432,-19.97100067138672 -5.309999942779541,-19.801000595092773 -5.949999809265137,-19.611000061035156 C-6.591000080108643,-19.410999298095703 -7.2210001945495605,-19.180999755859375 -7.841000080108643,-18.930999755859375 C-8.449999809265137,-18.67099952697754 -9.0600004196167,-18.391000747680664 -9.649999618530273,-18.070999145507812 C-10.239999771118164,-17.76099967956543 -10.819999694824219,-17.410999298095703 -11.380000114440918,-17.041000366210938 C-11.930999755859375,-16.67099952697754 -12.479999542236328,-16.270999908447266 -13,-15.85099983215332 C-13.520999908447266,-15.420999526977539 -14.020000457763672,-14.970999717712402 -14.489999771118164,-14.50100040435791 C-14.970000267028809,-14.020999908447266 -15.420000076293945,-13.520999908447266 -15.85099983215332,-13.00100040435791 C-16.270999908447266,-12.480999946594238 -16.670000076293945,-11.940999984741211 -17.040000915527344,-11.380999565124512 C-17.40999984741211,-10.821000099182129 -17.760000228881836,-10.241000175476074 -18.06999969482422,-9.651000022888184 C-18.3799991607666,-9.071000099182129 -18.670000076293945,-8.461000442504883 -18.930999755859375,-7.841000080108643 C-19.180999755859375,-7.2210001945495605 -19.410999298095703,-6.591000080108643 -19.60099983215332,-5.951000213623047 C-19.801000595092773,-5.310999870300293 -19.959999084472656,-4.660999774932861 -20.10099983215332,-4.000999927520752 C-20.231000900268555,-3.3510000705718994 -20.329999923706055,-2.680999994277954 -20.399999618530273,-2.0209999084472656 C-20.459999084472656,-1.3509999513626099 -20.5,-0.6710000038146973 -20.5,-0.0010000000474974513 C-20.5,0.6690000295639038 -20.459999084472656,1.3489999771118164 -20.399999618530273,2.0190000534057617 C-20.329999923706055,2.678999900817871 -20.231000900268555,3.3489999771118164 -20.10099983215332,4.008999824523926 C-19.959999084472656,4.658999919891357 -19.801000595092773,5.309000015258789 -19.60099983215332,5.948999881744385 C-19.410999298095703,6.589000225067139 -19.180999755859375,7.218999862670898 -18.930999755859375,7.839000225067139 C-18.670000076293945,8.458999633789062 -18.3799991607666,9.069000244140625 -18.06999969482422,9.64900016784668 C-17.760000228881836,10.23900032043457 -17.40999984741211,10.819000244140625 -17.040000915527344,11.378999710083008 C-16.670000076293945,11.939000129699707 -16.270999908447266,12.479000091552734 -15.85099983215332,12.99899959564209 C-15.420000076293945,13.519000053405762 -14.970000267028809,14.019000053405762 -14.489999771118164,14.49899959564209 C-14.020000457763672,14.968999862670898 -13.520999908447266,15.418999671936035 -13,15.848999977111816 C-12.479999542236328,16.268999099731445 -11.930999755859375,16.66900062561035 -11.380000114440918,17.038999557495117 C-10.819999694824219,17.409000396728516 -10.239999771118164,17.759000778198242 -9.649999618530273,18.069000244140625 C-9.0600004196167,18.388999938964844 -8.449999809265137,18.66900062561035 -7.841000080108643,18.929000854492188 C-7.2210001945495605,19.179000854492188 -6.591000080108643,19.409000396728516 -5.949999809265137,19.608999252319336 C-5.309999942779541,19.798999786376953 -4.650000095367432,19.9689998626709 -4,20.099000930786133 C-3.3510000705718994,20.229000091552734 -2.680999994277954,20.32900047302246 -2.010999917984009,20.39900016784668 C-1.340999960899353,20.4689998626709 -0.6700000166893005,20.499000549316406 0,20.499000549316406 C0.6700000166893005,20.499000549316406 1.350000023841858,20.4689998626709 2.0199999809265137,20.39900016784668 C2.680000066757202,20.32900047302246 3.3499999046325684,20.229000091552734 4.010000228881836,20.099000930786133 C4.658999919891357,19.9689998626709 5.318999767303467,19.798999786376953 5.960000038146973,19.608999252319336 C6.590000152587891,19.409000396728516 7.230000019073486,19.179000854492188 7.840000152587891,18.929000854492188 C8.460000038146973,18.66900062561035 9.069000244140625,18.388999938964844 9.659000396728516,18.069000244140625 C10.25,17.759000778198242 10.829999923706055,17.409000396728516 11.380000114440918,17.038999557495117 C11.9399995803833,16.66900062561035 12.48900032043457,16.268999099731445 13,15.848999977111816 C13.520000457763672,15.418999671936035 14.029000282287598,14.968999862670898 14.5,14.49899959564209 C14.970000267028809,14.019000053405762 15.430000305175781,13.519000053405762 15.850000381469727,12.99899959564209 C16.280000686645508,12.479000091552734 16.68000030517578,11.939000129699707 17.049999237060547,11.378999710083008 C17.420000076293945,10.819000244140625 17.760000228881836,10.23900032043457 18.079999923706055,9.64900016784668 C18.389999389648438,9.069000244140625 18.68000030517578,8.458999633789062 18.93000030517578,7.839000225067139 C19.190000534057617,7.218999862670898 19.420000076293945,6.589000225067139 19.608999252319336,5.948999881744385 C19.80900001525879,5.309000015258789 19.969999313354492,4.658999919891357 20.100000381469727,4.008999824523926 C20.239999771118164,3.3489999771118164 20.339000701904297,2.678999900817871 20.39900016784668,2.0190000534057617 C20.4689998626709,1.3489999771118164 20.5,0.6690000295639038 20.5,-0.0010000000474974513 C20.5,-0.6710000038146973 20.4689998626709,-1.3509999513626099 20.39900016784668,-2.0209999084472656 C20.339000701904297,-2.680999994277954 20.239999771118164,-3.3510000705718994 20.100000381469727,-4.000999927520752z"/></g></g><g class="primary design" transform="matrix(1,0,0,1,218.75,218.7530059814453)" opacity="1" style="display: block;"><g opacity="1" transform="matrix(1,0,0,1,0,0)"><path stroke-linecap="butt" stroke-linejoin="miter" fill-opacity="0" stroke-miterlimit="4" class="primary" stroke="rgb(255,255,255)" stroke-opacity="1" stroke-width="2" d="M0 0"/></g><g opacity="1" transform="matrix(1,0,0,1,0,0)"><path class="primary" fill="rgb(255,255,255)" fill-opacity="1" d=" M-20.10099983215332,4.008999824523926 C-19.969999313354492,4.658999919891357 -19.798999786376953,5.309000015258789 -19.610000610351562,5.948999881744385 C-19.40999984741211,6.589000225067139 -19.19099998474121,7.229000091552734 -18.930999755859375,7.839000225067139 C-18.680999755859375,8.458999633789062 -18.389999389648438,9.069000244140625 -18.06999969482422,9.659000396728516 C-17.759000778198242,10.23900032043457 -17.420000076293945,10.819000244140625 -17.049999237060547,11.378999710083008 C-16.680999755859375,11.939000129699707 -16.270999908447266,12.479000091552734 -15.85099983215332,12.99899959564209 C-15.430999755859375,13.519000053405762 -14.970000267028809,14.019000053405762 -14.5,14.49899959564209 C-14.029999732971191,14.968999862670898 -13.520999908447266,15.418999671936035 -13,15.848999977111816 C-12.479999542236328,16.268999099731445 -11.940999984741211,16.66900062561035 -11.380000114440918,17.038999557495117 C-10.829999923706055,17.409000396728516 -10.25,17.759000778198242 -9.65999984741211,18.069000244140625 C-9.069999694824219,18.388999938964844 -8.460000038146973,18.66900062561035 -7.840000152587891,18.929000854492188 C-7.230999946594238,19.179000854492188 -6.590000152587891,19.409000396728516 -5.949999809265137,19.608999252319336 C-5.320000171661377,19.798999786376953 -4.659999847412109,19.9689998626709 -4.010000228881836,20.099000930786133 C-3.3510000705718994,20.229000091552734 -2.680999994277954,20.32900047302246 -2.0209999084472656,20.39900016784668 C-1.3509999513626099,20.4689998626709 -0.6700000166893005,20.499000549316406 0,20.499000549316406 C0.6700000166893005,20.499000549316406 1.350000023841858,20.4689998626709 2.009999990463257,20.39900016784668 C2.680000066757202,20.32900047302246 3.3499999046325684,20.229000091552734 4,20.099000930786133 C4.659999847412109,19.9689998626709 5.309000015258789,19.798999786376953 5.949999809265137,19.608999252319336 C6.590000152587891,19.409000396728516 7.21999979019165,19.179000854492188 7.840000152587891,18.929000854492188 C8.449999809265137,18.66900062561035 9.059000015258789,18.388999938964844 9.64900016784668,18.069000244140625 C10.239999771118164,17.759000778198242 10.819000244140625,17.409000396728516 11.380000114440918,17.038999557495117 C11.9399995803833,16.66900062561035 12.479000091552734,16.268999099731445 13,15.848999977111816 C13.520000457763672,15.418999671936035 14.019000053405762,14.968999862670898 14.489999771118164,14.49899959564209 C14.968999862670898,14.019000053405762 15.420000076293945,13.519000053405762 15.850000381469727,12.99899959564209 C16.270000457763672,12.479000091552734 16.670000076293945,11.939000129699707 17.040000915527344,11.378999710083008 C17.40999984741211,10.819000244140625 17.759000778198242,10.23900032043457 18.069000244140625,9.659000396728516 C18.3799991607666,9.069000244140625 18.670000076293945,8.458999633789062 18.93000030517578,7.839000225067139 C19.18000030517578,7.229000091552734 19.410999298095703,6.589000225067139 19.600000381469727,5.948999881744385 C19.799999237060547,5.309000015258789 19.959999084472656,4.658999919891357 20.100000381469727,4.008999824523926 C20.229999542236328,3.3489999771118164 20.329999923706055,2.678999900817871 20.39900016784668,2.0190000534057617 C20.459999084472656,1.3489999771118164 20.5,0.6690000295639038 20.5,-0.0010000000474974513 C20.5,-0.6710000038146973 20.459999084472656,-1.3509999513626099 20.39900016784668,-2.010999917984009 C20.329999923706055,-2.680999994277954 20.229999542236328,-3.3510000705718994 20.100000381469727,-4.000999927520752 C19.959999084472656,-4.660999774932861 19.799999237060547,-5.310999870300293 19.600000381469727,-5.951000213623047 C19.410999298095703,-6.591000080108643 19.18000030517578,-7.2210001945495605 18.93000030517578,-7.841000080108643 C18.670000076293945,-8.461000442504883 18.3799991607666,-9.071000099182129 18.069000244140625,-9.651000022888184 C17.759000778198242,-10.241000175476074 17.40999984741211,-10.821000099182129 17.040000915527344,-11.380999565124512 C16.670000076293945,-11.940999984741211 16.270000457763672,-12.480999946594238 15.850000381469727,-13.00100040435791 C15.420000076293945,-13.520999908447266 14.968999862670898,-14.020999908447266 14.489999771118164,-14.50100040435791 C14.019000053405762,-14.970999717712402 13.520000457763672,-15.420999526977539 13,-15.85099983215332 C12.479000091552734,-16.270999908447266 11.9399995803833,-16.67099952697754 11.380000114440918,-17.041000366210938 C10.819000244140625,-17.410999298095703 10.239999771118164,-17.76099967956543 9.64900016784668,-18.070999145507812 C9.059000015258789,-18.391000747680664 8.449999809265137,-18.67099952697754 7.840000152587891,-18.930999755859375 C7.21999979019165,-19.180999755859375 6.590000152587891,-19.410999298095703 5.949999809265137,-19.611000061035156 C5.309000015258789,-19.801000595092773 4.659999847412109,-19.97100067138672 4,-20.10099983215332 C3.3499999046325684,-20.231000900268555 2.680000066757202,-20.33099937438965 2.009999990463257,-20.400999069213867 C0.6800000071525574,-20.5310001373291 -0.6809999942779541,-20.5310001373291 -2.0209999084472656,-20.400999069213867 C-2.680999994277954,-20.33099937438965 -3.3510000705718994,-20.231000900268555 -4.010000228881836,-20.10099983215332 C-4.659999847412109,-19.97100067138672 -5.320000171661377,-19.801000595092773 -5.949999809265137,-19.611000061035156 C-6.590000152587891,-19.410999298095703 -7.230999946594238,-19.180999755859375 -7.840000152587891,-18.930999755859375 C-8.460000038146973,-18.67099952697754 -9.069999694824219,-18.391000747680664 -9.65999984741211,-18.070999145507812 C-10.25,-17.76099967956543 -10.829999923706055,-17.410999298095703 -11.380000114440918,-17.041000366210938 C-11.940999984741211,-16.67099952697754 -12.479999542236328,-16.270999908447266 -13,-15.85099983215332 C-13.520999908447266,-15.420999526977539 -14.029999732971191,-14.970999717712402 -14.5,-14.50100040435791 C-14.970000267028809,-14.020999908447266 -15.430999755859375,-13.520999908447266 -15.85099983215332,-13.00100040435791 C-16.270999908447266,-12.480999946594238 -16.680999755859375,-11.940999984741211 -17.049999237060547,-11.380999565124512 C-17.420000076293945,-10.821000099182129 -17.759000778198242,-10.241000175476074 -18.06999969482422,-9.651000022888184 C-18.389999389648438,-9.071000099182129 -18.680999755859375,-8.461000442504883 -18.930999755859375,-7.841000080108643 C-19.19099998474121,-7.2210001945495605 -19.40999984741211,-6.591000080108643 -19.610000610351562,-5.951000213623047 C-19.798999786376953,-5.310999870300293 -19.969999313354492,-4.660999774932861 -20.10099983215332,-4.000999927520752 C-20.231000900268555,-3.3510000705718994 -20.329999923706055,-2.680999994277954 -20.399999618530273,-2.010999917984009 C-20.4689998626709,-1.3509999513626099 -20.5,-0.6710000038146973 -20.5,-0.0010000000474974513 C-20.5,0.6690000295639038 -20.4689998626709,1.3489999771118164 -20.399999618530273,2.0190000534057617 C-20.329999923706055,2.678999900817871 -20.231000900268555,3.3489999771118164 -20.10099983215332,4.008999824523926z"/></g></g><g class="primary design" transform="matrix(1,0,0,1,302.0799865722656,218.7530059814453)" opacity="1" style="display: block;"><g opacity="1" transform="matrix(1,0,0,1,0,0)"><path stroke-linecap="butt" stroke-linejoin="miter" fill-opacity="0" stroke-miterlimit="4" class="primary" stroke="rgb(255,255,255)" stroke-opacity="1" stroke-width="2" d="M0 0"/></g><g opacity="1" transform="matrix(1,0,0,1,0,0)"><path class="primary" fill="rgb(255,255,255)" fill-opacity="1" d=" M-20.10099983215332,4.008999824523926 C-19.97100067138672,4.658999919891357 -19.798999786376953,5.309000015258789 -19.610000610351562,5.948999881744385 C-19.40999984741211,6.589000225067139 -19.180999755859375,7.218999862670898 -18.930999755859375,7.839000225067139 C-18.670000076293945,8.458999633789062 -18.389999389648438,9.069000244140625 -18.06999969482422,9.659000396728516 C-17.760000228881836,10.23900032043457 -17.40999984741211,10.819000244140625 -17.040000915527344,11.378999710083008 C-16.670000076293945,11.939000129699707 -16.270999908447266,12.479000091552734 -15.85099983215332,12.99899959564209 C-15.420000076293945,13.519000053405762 -14.970999717712402,14.019000053405762 -14.5,14.49899959564209 C-14.020999908447266,14.968999862670898 -13.520999908447266,15.418999671936035 -13,15.848999977111816 C-12.479999542236328,16.268999099731445 -11.940999984741211,16.66900062561035 -11.380000114440918,17.038999557495117 C-10.819999694824219,17.409000396728516 -10.239999771118164,17.759000778198242 -9.649999618530273,18.069000244140625 C-9.069999694824219,18.388999938964844 -8.460000038146973,18.66900062561035 -7.840000152587891,18.929000854492188 C-7.230999946594238,19.18899917602539 -6.590000152587891,19.409000396728516 -5.949999809265137,19.608999252319336 C-5.309999942779541,19.798999786376953 -4.659999847412109,19.9689998626709 -4.011000156402588,20.099000930786133 C-3.3510000705718994,20.229000091552734 -2.680999994277954,20.32900047302246 -2.0209999084472656,20.39900016784668 C-1.3509999513626099,20.4689998626709 -0.6700000166893005,20.499000549316406 0,20.499000549316406 C0.6700000166893005,20.499000549316406 1.350000023841858,20.4689998626709 2.0199999809265137,20.39900016784668 C2.680000066757202,20.32900047302246 3.3499999046325684,20.229000091552734 4.010000228881836,20.099000930786133 C4.659999847412109,19.9689998626709 5.309000015258789,19.798999786376953 5.949999809265137,19.608999252319336 C6.590000152587891,19.409000396728516 7.230000019073486,19.18899917602539 7.840000152587891,18.929000854492188 C8.460000038146973,18.66900062561035 9.069000244140625,18.388999938964844 9.65999984741211,18.069000244140625 C10.23900032043457,17.759000778198242 10.829999923706055,17.409000396728516 11.380000114440918,17.038999557495117 C11.9399995803833,16.66900062561035 12.479000091552734,16.268999099731445 13,15.848999977111816 C13.520000457763672,15.418999671936035 14.020000457763672,14.968999862670898 14.5,14.49899959564209 C14.970000267028809,14.019000053405762 15.430000305175781,13.519000053405762 15.850000381469727,12.99899959564209 C16.270000457763672,12.479000091552734 16.670000076293945,11.939000129699707 17.040000915527344,11.378999710083008 C17.40999984741211,10.819000244140625 17.759000778198242,10.23900032043457 18.069000244140625,9.659000396728516 C18.388999938964844,9.069000244140625 18.670000076293945,8.458999633789062 18.93000030517578,7.839000225067139 C19.190000534057617,7.218999862670898 19.40999984741211,6.589000225067139 19.608999252319336,5.948999881744385 C19.798999786376953,5.309000015258789 19.969999313354492,4.658999919891357 20.100000381469727,4.008999824523926 C20.229999542236328,3.3489999771118164 20.329999923706055,2.678999900817871 20.39900016784668,2.0190000534057617 C20.4689998626709,1.3489999771118164 20.5,0.6690000295639038 20.5,-0.0010000000474974513 C20.5,-0.6710000038146973 20.4689998626709,-1.3509999513626099 20.39900016784668,-2.0209999084472656 C20.329999923706055,-2.680999994277954 20.229999542236328,-3.3510000705718994 20.100000381469727,-4.011000156402588 C19.969999313354492,-4.660999774932861 19.798999786376953,-5.310999870300293 19.608999252319336,-5.951000213623047 C19.40999984741211,-6.591000080108643 19.190000534057617,-7.2210001945495605 18.93000030517578,-7.841000080108643 C18.670000076293945,-8.461000442504883 18.388999938964844,-9.071000099182129 18.069000244140625,-9.651000022888184 C17.759000778198242,-10.241000175476074 17.40999984741211,-10.821000099182129 17.040000915527344,-11.380999565124512 C16.670000076293945,-11.940999984741211 16.270000457763672,-12.480999946594238 15.850000381469727,-13.00100040435791 C15.430000305175781,-13.520999908447266 14.970000267028809,-14.020999908447266 14.5,-14.491000175476074 C14.020000457763672,-14.970999717712402 13.520000457763672,-15.420999526977539 13,-15.85099983215332 C12.479000091552734,-16.270999908447266 11.9399995803833,-16.67099952697754 11.380000114440918,-17.041000366210938 C10.829999923706055,-17.410999298095703 10.23900032043457,-17.76099967956543 9.65999984741211,-18.070999145507812 C9.069000244140625,-18.391000747680664 8.460000038146973,-18.67099952697754 7.840000152587891,-18.930999755859375 C7.230000019073486,-19.180999755859375 6.590000152587891,-19.410999298095703 5.949999809265137,-19.611000061035156 C5.309000015258789,-19.801000595092773 4.659999847412109,-19.97100067138672 4.010000228881836,-20.10099983215332 C3.3499999046325684,-20.231000900268555 2.680000066757202,-20.33099937438965 2.0199999809265137,-20.400999069213867 C0.6800000071525574,-20.5310001373291 -0.6809999942779541,-20.5310001373291 -2.0209999084472656,-20.400999069213867 C-2.680999994277954,-20.33099937438965 -3.3510000705718994,-20.231000900268555 -4.011000156402588,-20.10099983215332 C-4.659999847412109,-19.97100067138672 -5.309999942779541,-19.801000595092773 -5.949999809265137,-19.611000061035156 C-6.590000152587891,-19.410999298095703 -7.230999946594238,-19.180999755859375 -7.840000152587891,-18.930999755859375 C-8.460000038146973,-18.67099952697754 -9.069999694824219,-18.391000747680664 -9.649999618530273,-18.070999145507812 C-10.239999771118164,-17.76099967956543 -10.819999694824219,-17.410999298095703 -11.380000114440918,-17.041000366210938 C-11.940999984741211,-16.67099952697754 -12.479999542236328,-16.270999908447266 -13,-15.85099983215332 C-13.520999908447266,-15.420999526977539 -14.020999908447266,-14.970999717712402 -14.5,-14.491000175476074 C-14.970999717712402,-14.020999908447266 -15.420000076293945,-13.520999908447266 -15.85099983215332,-13.00100040435791 C-16.270999908447266,-12.480999946594238 -16.670000076293945,-11.940999984741211 -17.040000915527344,-11.380999565124512 C-17.40999984741211,-10.821000099182129 -17.760000228881836,-10.241000175476074 -18.06999969482422,-9.651000022888184 C-18.389999389648438,-9.071000099182129 -18.670000076293945,-8.461000442504883 -18.930999755859375,-7.841000080108643 C-19.180999755859375,-7.2210001945495605 -19.40999984741211,-6.591000080108643 -19.610000610351562,-5.951000213623047 C-19.798999786376953,-5.310999870300293 -19.97100067138672,-4.660999774932861 -20.10099983215332,-4.011000156402588 C-20.231000900268555,-3.3510000705718994 -20.329999923706055,-2.680999994277954 -20.399999618530273,-2.0209999084472656 C-20.469999313354492,-1.3509999513626099 -20.5,-0.6710000038146973 -20.5,-0.0010000000474974513 C-20.5,0.6690000295639038 -20.469999313354492,1.3489999771118164 -20.399999618530273,2.0190000534057617 C-20.329999923706055,2.678999900817871 -20.231000900268555,3.3489999771118164 -20.10099983215332,4.008999824523926z"/></g></g><g class="primary design" transform="matrix(1,0,0,1,250,250)" opacity="1" style="display: none;"><g opacity="1" transform="matrix(1,0,0,1,0,0)"><path stroke-linecap="butt" stroke-linejoin="miter" fill-opacity="0" stroke-miterlimit="4" class="primary" stroke="rgb(18,19,49)" stroke-opacity="1" stroke-width="2" d="M0 0"/></g><g opacity="1" transform="matrix(1,0,0,1,0,0)"><path class="primary" fill="rgb(18,19,49)" fill-opacity="1" d=" M145.85699462890625,-15.32800006866455 C145.85699462890625,-15.32800006866455 145.85699462890625,-49.143001556396484 145.85699462890625,-49.143001556396484 C145.85699462890625,-113.95800018310547 93.125,-166.68899536132812 28.309999465942383,-166.68899536132812 C28.309999465942383,-166.68899536132812 -90.81400299072266,-166.68899536132812 -90.81400299072266,-166.68899536132812 C-155.62899780273438,-166.68899536132812 -208.36099243164062,-113.95800018310547 -208.36099243164062,-49.143001556396484 C-208.36099243164062,-49.143001556396484 -208.36099243164062,88.54499816894531 -208.36099243164062,88.54499816894531 C-208.36099243164062,97.18800354003906 -201.35499572753906,104.19499969482422 -192.71099853515625,104.19499969482422 C-192.71099853515625,104.19499969482422 -82.71700286865234,104.19499969482422 -82.71700286865234,104.19499969482422 C-77.25800323486328,151.0469970703125 -37.33300018310547,187.53199768066406 10.960000038146973,187.53199768066406 C10.960000038146973,187.53199768066406 192.7100067138672,187.53199768066406 192.7100067138672,187.53199768066406 C201.35400390625,187.53199768066406 208.36000061035156,180.52499389648438 208.36000061035156,171.8820037841797 C208.36000061035156,171.8820037841797 208.36000061035156,73.46199798583984 208.36000061035156,73.46199798583984 C208.36000061035156,33.33300018310547 182.7530059814453,-2.0880000591278076 145.85699462890625,-15.32800006866455z M-177.06100463867188,-49.143001556396484 C-177.06100463867188,-96.6989974975586 -138.37100219726562,-135.38900756835938 -90.81400299072266,-135.38900756835938 C-90.81400299072266,-135.38900756835938 28.309999465942383,-135.38900756835938 28.309999465942383,-135.38900756835938 C75.86699676513672,-135.38900756835938 114.55699920654297,-96.6989974975586 114.55699920654297,-49.143001556396484 C114.55699920654297,-49.143001556396484 114.55699920654297,-13.35200023651123 114.55699920654297,-13.35200023651123 C114.55699920654297,34.20500183105469 75.86699676513672,72.8949966430664 28.309999465942383,72.8949966430664 C28.309999465942383,72.8949966430664 -67.6520004272461,72.8949966430664 -67.6520004272461,72.8949966430664 C-67.6719970703125,72.8949966430664 -67.69000244140625,72.89199829101562 -67.70999908447266,72.89199829101562 C-67.7300033569336,72.89199829101562 -67.74800109863281,72.8949966430664 -67.76799774169922,72.8949966430664 C-67.76799774169922,72.8949966430664 -177.06100463867188,72.8949966430664 -177.06100463867188,72.8949966430664 C-177.06100463867188,72.8949966430664 -177.06100463867188,-49.143001556396484 -177.06100463867188,-49.143001556396484z M177.05999755859375,156.23199462890625 C177.05999755859375,156.23199462890625 10.960000038146973,156.23199462890625 10.960000038146973,156.23199462890625 C-20.04199981689453,156.23199462890625 -45.86800003051758,133.7239990234375 -51.082000732421875,104.19499969482422 C-51.082000732421875,104.19499969482422 28.309999465942383,104.19499969482422 28.309999465942383,104.19499969482422 C82.66000366210938,104.19499969482422 128.5050048828125,67.11499786376953 141.89599609375,16.926000595092773 C162.9510040283203,27.339000701904297 177.05999755859375,49.104000091552734 177.05999755859375,73.46199798583984 C177.05999755859375,73.46199798583984 177.05999755859375,156.23199462890625 177.05999755859375,156.23199462890625z"/></g></g><g class="primary design" transform="matrix(1,0,0,1,135.41000366210938,218.7530059814453)" opacity="1" style="display: none;"><g opacity="1" transform="matrix(1,0,0,1,0,0)"><path stroke-linecap="butt" stroke-linejoin="miter" fill-opacity="0" stroke-miterlimit="4" class="primary" stroke="rgb(18,19,49)" stroke-opacity="1" stroke-width="2" d="M0 0"/></g><g opacity="1" transform="matrix(1,0,0,1,0,0)"><path class="primary" fill="rgb(18,19,49)" fill-opacity="1" d=" M20.100000381469727,-4.000999927520752 C19.969999313354492,-4.660999774932861 19.80900001525879,-5.310999870300293 19.608999252319336,-5.951000213623047 C19.420000076293945,-6.591000080108643 19.190000534057617,-7.2210001945495605 18.93000030517578,-7.841000080108643 C18.68000030517578,-8.461000442504883 18.389999389648438,-9.071000099182129 18.079999923706055,-9.651000022888184 C17.760000228881836,-10.241000175476074 17.420000076293945,-10.821000099182129 17.049999237060547,-11.380999565124512 C16.68000030517578,-11.940999984741211 16.280000686645508,-12.480999946594238 15.850000381469727,-13.00100040435791 C15.430000305175781,-13.520999908447266 14.970000267028809,-14.020999908447266 14.5,-14.50100040435791 C14.029000282287598,-14.970999717712402 13.520000457763672,-15.420999526977539 13,-15.85099983215332 C12.48900032043457,-16.270999908447266 11.9399995803833,-16.67099952697754 11.380000114440918,-17.041000366210938 C10.829999923706055,-17.410999298095703 10.25,-17.76099967956543 9.659000396728516,-18.070999145507812 C9.069000244140625,-18.391000747680664 8.460000038146973,-18.67099952697754 7.840000152587891,-18.930999755859375 C7.230000019073486,-19.180999755859375 6.590000152587891,-19.410999298095703 5.960000038146973,-19.611000061035156 C5.318999767303467,-19.801000595092773 4.658999919891357,-19.97100067138672 4.010000228881836,-20.10099983215332 C3.3499999046325684,-20.231000900268555 2.680000066757202,-20.33099937438965 2.0199999809265137,-20.400999069213867 C0.6800000071525574,-20.5310001373291 -0.6809999942779541,-20.5310001373291 -2.010999917984009,-20.400999069213867 C-2.680999994277954,-20.33099937438965 -3.3510000705718994,-20.231000900268555 -4,-20.10099983215332 C-4.650000095367432,-19.97100067138672 -5.309999942779541,-19.801000595092773 -5.949999809265137,-19.611000061035156 C-6.591000080108643,-19.410999298095703 -7.2210001945495605,-19.180999755859375 -7.841000080108643,-18.930999755859375 C-8.449999809265137,-18.67099952697754 -9.0600004196167,-18.391000747680664 -9.649999618530273,-18.070999145507812 C-10.239999771118164,-17.76099967956543 -10.819999694824219,-17.410999298095703 -11.380000114440918,-17.041000366210938 C-11.930999755859375,-16.67099952697754 -12.479999542236328,-16.270999908447266 -13,-15.85099983215332 C-13.520999908447266,-15.420999526977539 -14.020000457763672,-14.970999717712402 -14.489999771118164,-14.50100040435791 C-14.970000267028809,-14.020999908447266 -15.420000076293945,-13.520999908447266 -15.85099983215332,-13.00100040435791 C-16.270999908447266,-12.480999946594238 -16.670000076293945,-11.940999984741211 -17.040000915527344,-11.380999565124512 C-17.40999984741211,-10.821000099182129 -17.760000228881836,-10.241000175476074 -18.06999969482422,-9.651000022888184 C-18.3799991607666,-9.071000099182129 -18.670000076293945,-8.461000442504883 -18.930999755859375,-7.841000080108643 C-19.180999755859375,-7.2210001945495605 -19.410999298095703,-6.591000080108643 -19.60099983215332,-5.951000213623047 C-19.801000595092773,-5.310999870300293 -19.959999084472656,-4.660999774932861 -20.10099983215332,-4.000999927520752 C-20.231000900268555,-3.3510000705718994 -20.329999923706055,-2.680999994277954 -20.399999618530273,-2.0209999084472656 C-20.459999084472656,-1.3509999513626099 -20.5,-0.6710000038146973 -20.5,-0.0010000000474974513 C-20.5,0.6690000295639038 -20.459999084472656,1.3489999771118164 -20.399999618530273,2.0190000534057617 C-20.329999923706055,2.678999900817871 -20.231000900268555,3.3489999771118164 -20.10099983215332,4.008999824523926 C-19.959999084472656,4.658999919891357 -19.801000595092773,5.309000015258789 -19.60099983215332,5.948999881744385 C-19.410999298095703,6.589000225067139 -19.180999755859375,7.218999862670898 -18.930999755859375,7.839000225067139 C-18.670000076293945,8.458999633789062 -18.3799991607666,9.069000244140625 -18.06999969482422,9.64900016784668 C-17.760000228881836,10.23900032043457 -17.40999984741211,10.819000244140625 -17.040000915527344,11.378999710083008 C-16.670000076293945,11.939000129699707 -16.270999908447266,12.479000091552734 -15.85099983215332,12.99899959564209 C-15.420000076293945,13.519000053405762 -14.970000267028809,14.019000053405762 -14.489999771118164,14.49899959564209 C-14.020000457763672,14.968999862670898 -13.520999908447266,15.418999671936035 -13,15.848999977111816 C-12.479999542236328,16.268999099731445 -11.930999755859375,16.66900062561035 -11.380000114440918,17.038999557495117 C-10.819999694824219,17.409000396728516 -10.239999771118164,17.759000778198242 -9.649999618530273,18.069000244140625 C-9.0600004196167,18.388999938964844 -8.449999809265137,18.66900062561035 -7.841000080108643,18.929000854492188 C-7.2210001945495605,19.179000854492188 -6.591000080108643,19.409000396728516 -5.949999809265137,19.608999252319336 C-5.309999942779541,19.798999786376953 -4.650000095367432,19.9689998626709 -4,20.099000930786133 C-3.3510000705718994,20.229000091552734 -2.680999994277954,20.32900047302246 -2.010999917984009,20.39900016784668 C-1.340999960899353,20.4689998626709 -0.6700000166893005,20.499000549316406 0,20.499000549316406 C0.6700000166893005,20.499000549316406 1.350000023841858,20.4689998626709 2.0199999809265137,20.39900016784668 C2.680000066757202,20.32900047302246 3.3499999046325684,20.229000091552734 4.010000228881836,20.099000930786133 C4.658999919891357,19.9689998626709 5.318999767303467,19.798999786376953 5.960000038146973,19.608999252319336 C6.590000152587891,19.409000396728516 7.230000019073486,19.179000854492188 7.840000152587891,18.929000854492188 C8.460000038146973,18.66900062561035 9.069000244140625,18.388999938964844 9.659000396728516,18.069000244140625 C10.25,17.759000778198242 10.829999923706055,17.409000396728516 11.380000114440918,17.038999557495117 C11.9399995803833,16.66900062561035 12.48900032043457,16.268999099731445 13,15.848999977111816 C13.520000457763672,15.418999671936035 14.029000282287598,14.968999862670898 14.5,14.49899959564209 C14.970000267028809,14.019000053405762 15.430000305175781,13.519000053405762 15.850000381469727,12.99899959564209 C16.280000686645508,12.479000091552734 16.68000030517578,11.939000129699707 17.049999237060547,11.378999710083008 C17.420000076293945,10.819000244140625 17.760000228881836,10.23900032043457 18.079999923706055,9.64900016784668 C18.389999389648438,9.069000244140625 18.68000030517578,8.458999633789062 18.93000030517578,7.839000225067139 C19.190000534057617,7.218999862670898 19.420000076293945,6.589000225067139 19.608999252319336,5.948999881744385 C19.80900001525879,5.309000015258789 19.969999313354492,4.658999919891357 20.100000381469727,4.008999824523926 C20.239999771118164,3.3489999771118164 20.339000701904297,2.678999900817871 20.39900016784668,2.0190000534057617 C20.4689998626709,1.3489999771118164 20.5,0.6690000295639038 20.5,-0.0010000000474974513 C20.5,-0.6710000038146973 20.4689998626709,-1.3509999513626099 20.39900016784668,-2.0209999084472656 C20.339000701904297,-2.680999994277954 20.239999771118164,-3.3510000705718994 20.100000381469727,-4.000999927520752z"/></g></g><g class="primary design" transform="matrix(1,0,0,1,218.75,218.7530059814453)" opacity="1" style="display: none;"><g opacity="1" transform="matrix(1,0,0,1,0,0)"><path stroke-linecap="butt" stroke-linejoin="miter" fill-opacity="0" stroke-miterlimit="4" class="primary" stroke="rgb(18,19,49)" stroke-opacity="1" stroke-width="2" d="M0 0"/></g><g opacity="1" transform="matrix(1,0,0,1,0,0)"><path class="primary" fill="rgb(18,19,49)" fill-opacity="1" d=" M-20.10099983215332,4.008999824523926 C-19.969999313354492,4.658999919891357 -19.798999786376953,5.309000015258789 -19.610000610351562,5.948999881744385 C-19.40999984741211,6.589000225067139 -19.19099998474121,7.229000091552734 -18.930999755859375,7.839000225067139 C-18.680999755859375,8.458999633789062 -18.389999389648438,9.069000244140625 -18.06999969482422,9.659000396728516 C-17.759000778198242,10.23900032043457 -17.420000076293945,10.819000244140625 -17.049999237060547,11.378999710083008 C-16.680999755859375,11.939000129699707 -16.270999908447266,12.479000091552734 -15.85099983215332,12.99899959564209 C-15.430999755859375,13.519000053405762 -14.970000267028809,14.019000053405762 -14.5,14.49899959564209 C-14.029999732971191,14.968999862670898 -13.520999908447266,15.418999671936035 -13,15.848999977111816 C-12.479999542236328,16.268999099731445 -11.940999984741211,16.66900062561035 -11.380000114440918,17.038999557495117 C-10.829999923706055,17.409000396728516 -10.25,17.759000778198242 -9.65999984741211,18.069000244140625 C-9.069999694824219,18.388999938964844 -8.460000038146973,18.66900062561035 -7.840000152587891,18.929000854492188 C-7.230999946594238,19.179000854492188 -6.590000152587891,19.409000396728516 -5.949999809265137,19.608999252319336 C-5.320000171661377,19.798999786376953 -4.659999847412109,19.9689998626709 -4.010000228881836,20.099000930786133 C-3.3510000705718994,20.229000091552734 -2.680999994277954,20.32900047302246 -2.0209999084472656,20.39900016784668 C-1.3509999513626099,20.4689998626709 -0.6700000166893005,20.499000549316406 0,20.499000549316406 C0.6700000166893005,20.499000549316406 1.350000023841858,20.4689998626709 2.009999990463257,20.39900016784668 C2.680000066757202,20.32900047302246 3.3499999046325684,20.229000091552734 4,20.099000930786133 C4.659999847412109,19.9689998626709 5.309000015258789,19.798999786376953 5.949999809265137,19.608999252319336 C6.590000152587891,19.409000396728516 7.21999979019165,19.179000854492188 7.840000152587891,18.929000854492188 C8.449999809265137,18.66900062561035 9.059000015258789,18.388999938964844 9.64900016784668,18.069000244140625 C10.239999771118164,17.759000778198242 10.819000244140625,17.409000396728516 11.380000114440918,17.038999557495117 C11.9399995803833,16.66900062561035 12.479000091552734,16.268999099731445 13,15.848999977111816 C13.520000457763672,15.418999671936035 14.019000053405762,14.968999862670898 14.489999771118164,14.49899959564209 C14.968999862670898,14.019000053405762 15.420000076293945,13.519000053405762 15.850000381469727,12.99899959564209 C16.270000457763672,12.479000091552734 16.670000076293945,11.939000129699707 17.040000915527344,11.378999710083008 C17.40999984741211,10.819000244140625 17.759000778198242,10.23900032043457 18.069000244140625,9.659000396728516 C18.3799991607666,9.069000244140625 18.670000076293945,8.458999633789062 18.93000030517578,7.839000225067139 C19.18000030517578,7.229000091552734 19.410999298095703,6.589000225067139 19.600000381469727,5.948999881744385 C19.799999237060547,5.309000015258789 19.959999084472656,4.658999919891357 20.100000381469727,4.008999824523926 C20.229999542236328,3.3489999771118164 20.329999923706055,2.678999900817871 20.39900016784668,2.0190000534057617 C20.459999084472656,1.3489999771118164 20.5,0.6690000295639038 20.5,-0.0010000000474974513 C20.5,-0.6710000038146973 20.459999084472656,-1.3509999513626099 20.39900016784668,-2.010999917984009 C20.329999923706055,-2.680999994277954 20.229999542236328,-3.3510000705718994 20.100000381469727,-4.000999927520752 C19.959999084472656,-4.660999774932861 19.799999237060547,-5.310999870300293 19.600000381469727,-5.951000213623047 C19.410999298095703,-6.591000080108643 19.18000030517578,-7.2210001945495605 18.93000030517578,-7.841000080108643 C18.670000076293945,-8.461000442504883 18.3799991607666,-9.071000099182129 18.069000244140625,-9.651000022888184 C17.759000778198242,-10.241000175476074 17.40999984741211,-10.821000099182129 17.040000915527344,-11.380999565124512 C16.670000076293945,-11.940999984741211 16.270000457763672,-12.480999946594238 15.850000381469727,-13.00100040435791 C15.420000076293945,-13.520999908447266 14.968999862670898,-14.020999908447266 14.489999771118164,-14.50100040435791 C14.019000053405762,-14.970999717712402 13.520000457763672,-15.420999526977539 13,-15.85099983215332 C12.479000091552734,-16.270999908447266 11.9399995803833,-16.67099952697754 11.380000114440918,-17.041000366210938 C10.819000244140625,-17.410999298095703 10.239999771118164,-17.76099967956543 9.64900016784668,-18.070999145507812 C9.059000015258789,-18.391000747680664 8.449999809265137,-18.67099952697754 7.840000152587891,-18.930999755859375 C7.21999979019165,-19.180999755859375 6.590000152587891,-19.410999298095703 5.949999809265137,-19.611000061035156 C5.309000015258789,-19.801000595092773 4.659999847412109,-19.97100067138672 4,-20.10099983215332 C3.3499999046325684,-20.231000900268555 2.680000066757202,-20.33099937438965 2.009999990463257,-20.400999069213867 C0.6800000071525574,-20.5310001373291 -0.6809999942779541,-20.5310001373291 -2.0209999084472656,-20.400999069213867 C-2.680999994277954,-20.33099937438965 -3.3510000705718994,-20.231000900268555 -4.010000228881836,-20.10099983215332 C-4.659999847412109,-19.97100067138672 -5.320000171661377,-19.801000595092773 -5.949999809265137,-19.611000061035156 C-6.590000152587891,-19.410999298095703 -7.230999946594238,-19.180999755859375 -7.840000152587891,-18.930999755859375 C-8.460000038146973,-18.67099952697754 -9.069999694824219,-18.391000747680664 -9.65999984741211,-18.070999145507812 C-10.25,-17.76099967956543 -10.829999923706055,-17.410999298095703 -11.380000114440918,-17.041000366210938 C-11.940999984741211,-16.67099952697754 -12.479999542236328,-16.270999908447266 -13,-15.85099983215332 C-13.520999908447266,-15.420999526977539 -14.029999732971191,-14.970999717712402 -14.5,-14.50100040435791 C-14.970000267028809,-14.020999908447266 -15.430999755859375,-13.520999908447266 -15.85099983215332,-13.00100040435791 C-16.270999908447266,-12.480999946594238 -16.680999755859375,-11.940999984741211 -17.049999237060547,-11.380999565124512 C-17.420000076293945,-10.821000099182129 -17.759000778198242,-10.241000175476074 -18.06999969482422,-9.651000022888184 C-18.389999389648438,-9.071000099182129 -18.680999755859375,-8.461000442504883 -18.930999755859375,-7.841000080108643 C-19.19099998474121,-7.2210001945495605 -19.40999984741211,-6.591000080108643 -19.610000610351562,-5.951000213623047 C-19.798999786376953,-5.310999870300293 -19.969999313354492,-4.660999774932861 -20.10099983215332,-4.000999927520752 C-20.231000900268555,-3.3510000705718994 -20.329999923706055,-2.680999994277954 -20.399999618530273,-2.010999917984009 C-20.4689998626709,-1.3509999513626099 -20.5,-0.6710000038146973 -20.5,-0.0010000000474974513 C-20.5,0.6690000295639038 -20.4689998626709,1.3489999771118164 -20.399999618530273,2.0190000534057617 C-20.329999923706055,2.678999900817871 -20.231000900268555,3.3489999771118164 -20.10099983215332,4.008999824523926z"/></g></g><g class="primary design" transform="matrix(1,0,0,1,302.0799865722656,218.7530059814453)" opacity="1" style="display: none;"><g opacity="1" transform="matrix(1,0,0,1,0,0)"><path stroke-linecap="butt" stroke-linejoin="miter" fill-opacity="0" stroke-miterlimit="4" class="primary" stroke="rgb(18,19,49)" stroke-opacity="1" stroke-width="2" d="M0 0"/></g><g opacity="1" transform="matrix(1,0,0,1,0,0)"><path class="primary" fill="rgb(18,19,49)" fill-opacity="1" d=" M-20.10099983215332,4.008999824523926 C-19.97100067138672,4.658999919891357 -19.798999786376953,5.309000015258789 -19.610000610351562,5.948999881744385 C-19.40999984741211,6.589000225067139 -19.180999755859375,7.218999862670898 -18.930999755859375,7.839000225067139 C-18.670000076293945,8.458999633789062 -18.389999389648438,9.069000244140625 -18.06999969482422,9.659000396728516 C-17.760000228881836,10.23900032043457 -17.40999984741211,10.819000244140625 -17.040000915527344,11.378999710083008 C-16.670000076293945,11.939000129699707 -16.270999908447266,12.479000091552734 -15.85099983215332,12.99899959564209 C-15.420000076293945,13.519000053405762 -14.970999717712402,14.019000053405762 -14.5,14.49899959564209 C-14.020999908447266,14.968999862670898 -13.520999908447266,15.418999671936035 -13,15.848999977111816 C-12.479999542236328,16.268999099731445 -11.940999984741211,16.66900062561035 -11.380000114440918,17.038999557495117 C-10.819999694824219,17.409000396728516 -10.239999771118164,17.759000778198242 -9.649999618530273,18.069000244140625 C-9.069999694824219,18.388999938964844 -8.460000038146973,18.66900062561035 -7.840000152587891,18.929000854492188 C-7.230999946594238,19.18899917602539 -6.590000152587891,19.409000396728516 -5.949999809265137,19.608999252319336 C-5.309999942779541,19.798999786376953 -4.659999847412109,19.9689998626709 -4.011000156402588,20.099000930786133 C-3.3510000705718994,20.229000091552734 -2.680999994277954,20.32900047302246 -2.0209999084472656,20.39900016784668 C-1.3509999513626099,20.4689998626709 -0.6700000166893005,20.499000549316406 0,20.499000549316406 C0.6700000166893005,20.499000549316406 1.350000023841858,20.4689998626709 2.0199999809265137,20.39900016784668 C2.680000066757202,20.32900047302246 3.3499999046325684,20.229000091552734 4.010000228881836,20.099000930786133 C4.659999847412109,19.9689998626709 5.309000015258789,19.798999786376953 5.949999809265137,19.608999252319336 C6.590000152587891,19.409000396728516 7.230000019073486,19.18899917602539 7.840000152587891,18.929000854492188 C8.460000038146973,18.66900062561035 9.069000244140625,18.388999938964844 9.65999984741211,18.069000244140625 C10.23900032043457,17.759000778198242 10.829999923706055,17.409000396728516 11.380000114440918,17.038999557495117 C11.9399995803833,16.66900062561035 12.479000091552734,16.268999099731445 13,15.848999977111816 C13.520000457763672,15.418999671936035 14.020000457763672,14.968999862670898 14.5,14.49899959564209 C14.970000267028809,14.019000053405762 15.430000305175781,13.519000053405762 15.850000381469727,12.99899959564209 C16.270000457763672,12.479000091552734 16.670000076293945,11.939000129699707 17.040000915527344,11.378999710083008 C17.40999984741211,10.819000244140625 17.759000778198242,10.23900032043457 18.069000244140625,9.659000396728516 C18.388999938964844,9.069000244140625 18.670000076293945,8.458999633789062 18.93000030517578,7.839000225067139 C19.190000534057617,7.218999862670898 19.40999984741211,6.589000225067139 19.608999252319336,5.948999881744385 C19.798999786376953,5.309000015258789 19.969999313354492,4.658999919891357 20.100000381469727,4.008999824523926 C20.229999542236328,3.3489999771118164 20.329999923706055,2.678999900817871 20.39900016784668,2.0190000534057617 C20.4689998626709,1.3489999771118164 20.5,0.6690000295639038 20.5,-0.0010000000474974513 C20.5,-0.6710000038146973 20.4689998626709,-1.3509999513626099 20.39900016784668,-2.0209999084472656 C20.329999923706055,-2.680999994277954 20.229999542236328,-3.3510000705718994 20.100000381469727,-4.011000156402588 C19.969999313354492,-4.660999774932861 19.798999786376953,-5.310999870300293 19.608999252319336,-5.951000213623047 C19.40999984741211,-6.591000080108643 19.190000534057617,-7.2210001945495605 18.93000030517578,-7.841000080108643 C18.670000076293945,-8.461000442504883 18.388999938964844,-9.071000099182129 18.069000244140625,-9.651000022888184 C17.759000778198242,-10.241000175476074 17.40999984741211,-10.821000099182129 17.040000915527344,-11.380999565124512 C16.670000076293945,-11.940999984741211 16.270000457763672,-12.480999946594238 15.850000381469727,-13.00100040435791 C15.430000305175781,-13.520999908447266 14.970000267028809,-14.020999908447266 14.5,-14.491000175476074 C14.020000457763672,-14.970999717712402 13.520000457763672,-15.420999526977539 13,-15.85099983215332 C12.479000091552734,-16.270999908447266 11.9399995803833,-16.67099952697754 11.380000114440918,-17.041000366210938 C10.829999923706055,-17.410999298095703 10.23900032043457,-17.76099967956543 9.65999984741211,-18.070999145507812 C9.069000244140625,-18.391000747680664 8.460000038146973,-18.67099952697754 7.840000152587891,-18.930999755859375 C7.230000019073486,-19.180999755859375 6.590000152587891,-19.410999298095703 5.949999809265137,-19.611000061035156 C5.309000015258789,-19.801000595092773 4.659999847412109,-19.97100067138672 4.010000228881836,-20.10099983215332 C3.3499999046325684,-20.231000900268555 2.680000066757202,-20.33099937438965 2.0199999809265137,-20.400999069213867 C0.6800000071525574,-20.5310001373291 -0.6809999942779541,-20.5310001373291 -2.0209999084472656,-20.400999069213867 C-2.680999994277954,-20.33099937438965 -3.3510000705718994,-20.231000900268555 -4.011000156402588,-20.10099983215332 C-4.659999847412109,-19.97100067138672 -5.309999942779541,-19.801000595092773 -5.949999809265137,-19.611000061035156 C-6.590000152587891,-19.410999298095703 -7.230999946594238,-19.180999755859375 -7.840000152587891,-18.930999755859375 C-8.460000038146973,-18.67099952697754 -9.069999694824219,-18.391000747680664 -9.649999618530273,-18.070999145507812 C-10.239999771118164,-17.76099967956543 -10.819999694824219,-17.410999298095703 -11.380000114440918,-17.041000366210938 C-11.940999984741211,-16.67099952697754 -12.479999542236328,-16.270999908447266 -13,-15.85099983215332 C-13.520999908447266,-15.420999526977539 -14.020999908447266,-14.970999717712402 -14.5,-14.491000175476074 C-14.970999717712402,-14.020999908447266 -15.420000076293945,-13.520999908447266 -15.85099983215332,-13.00100040435791 C-16.270999908447266,-12.480999946594238 -16.670000076293945,-11.940999984741211 -17.040000915527344,-11.380999565124512 C-17.40999984741211,-10.821000099182129 -17.760000228881836,-10.241000175476074 -18.06999969482422,-9.651000022888184 C-18.389999389648438,-9.071000099182129 -18.670000076293945,-8.461000442504883 -18.930999755859375,-7.841000080108643 C-19.180999755859375,-7.2210001945495605 -19.40999984741211,-6.591000080108643 -19.610000610351562,-5.951000213623047 C-19.798999786376953,-5.310999870300293 -19.97100067138672,-4.660999774932861 -20.10099983215332,-4.011000156402588 C-20.231000900268555,-3.3510000705718994 -20.329999923706055,-2.680999994277954 -20.399999618530273,-2.0209999084472656 C-20.469999313354492,-1.3509999513626099 -20.5,-0.6710000038146973 -20.5,-0.0010000000474974513 C-20.5,0.6690000295639038 -20.469999313354492,1.3489999771118164 -20.399999618530273,2.0190000534057617 C-20.329999923706055,2.678999900817871 -20.231000900268555,3.3489999771118164 -20.10099983215332,4.008999824523926z"/></g></g></g></g></svg>